<svg xmlns="http://www.w3.org/2000/svg" xmlns:xlink="http://www.w3.org/1999/xlink" viewBox="0 0 116.597 38.801"><defs><style>.cls-1{fill:url(#linear-gradient);}.cls-2{fill:url(#linear-gradient-2);}</style><linearGradient id="linear-gradient" x1="183.601" y1="-308.481" x2="86.139" y2="-263.034" gradientTransform="matrix(1, 0, 0, -1, -76.019, -257.326)" gradientUnits="userSpaceOnUse"><stop offset="0" stop-color="#b2397e"/><stop offset="0.117" stop-color="#9b3b7f"/><stop offset="0.414" stop-color="#654082"/><stop offset="0.67" stop-color="#3e4383"/><stop offset="0.874" stop-color="#264585"/><stop offset="1" stop-color="#1d4685"/></linearGradient><linearGradient id="linear-gradient-2" x1="118.776" y1="-273.962" x2="79.785" y2="-255.78" xlink:href="#linear-gradient"/></defs><g id="Layer_2" data-name="Layer 2"><g id="Layer_1-2" data-name="Layer 1"><path class="cls-1" d="M116.6,29.827a8.975,8.975,0,0,0-17.619-2.415H0v4.829H98.978A8.975,8.975,0,0,0,116.6,29.827Zm-4.829,0a4.15,4.15,0,1,1-4.145-4.146A4.15,4.15,0,0,1,111.768,29.827Z"/><path class="cls-2" d="M45.423,8.934a8.934,8.934,0,0,0-17.539-2.4H0v4.807H27.884a8.934,8.934,0,0,0,17.539-2.4Zm-4.808,0a4.13,4.13,0,1,1-4.126-4.127A4.13,4.13,0,0,1,40.615,8.934Z"/></g></g></svg>